<?xml version="1.0" encoding="UTF-8"?>
<svg id="Ebene_1" xmlns="http://www.w3.org/2000/svg" version="1.1" viewBox="0 0 221.1 186">
  <!-- Generator: Adobe Illustrator 29.8.2, SVG Export Plug-In . SVG Version: 2.1.1 Build 3)  -->
  <defs>
    <style>
      .st0 {
        fill: #ab388d;
      }

      .st1 {
        fill: #f55a00;
      }
    </style>
  </defs>
  <g>
    <path class="st1" d="M140.7,63.1s12.9,6,16.9,16c4.1,10-13.8,35-13.8,35l26.2.5s-.7-22.2-8-38c-7.3-15.8-19.6-32.8-19.6-32.8,0,0-1.7,19.3-1.7,19.3Z"/>
    <path class="st1" d="M118.1,34.8s-61.8,15.3-65.5,20.7c-3.8,5.4-.5,12.2,14,10.9,14.5-1.3,19.8-13.8,19.8-13.8l-24.8,25.1c19.5,24.1,55.5,31.6,55.5,31.6l-21.7-47.6,40.8,2.1-2.1-16.9-40.4,4,45.6-12-21.1-3.9h0Z"/>
    <path class="st1" d="M48,66.1s13,30.7,70.2,50l-21.1,10.5-12.7-8.1s-12.5,29.7-14.5,32.6c-2,2.9-14.7-24.5-14.7-24.5l22.2-12.9-27.2-14.8-2.2-32.9Z"/>
    <path class="st1" d="M123.5,120.9l7.4-5.4c16.2,5,36.6,5.6,36.6,5.6,0,0-53.8,48.3-81.3,38.6-8.2-2.9-11.6-18.3-1.6-22.8,10-4.5,12.5,0,12.5,0l2,9.9,15.4-7.4-9.6-7.3,14.7-7.7,8.4,11.3,11.3-9.3s-15.7-5.3-15.7-5.3Z"/>
  </g>
  <g>
    <path class="st0" d="M173.7,105.4l-27.6-.6.5-.8c.2-.2,17.6-25,13.7-34.6-3.9-9.7-16.5-15.6-16.7-15.7h-.3c0-.1,1.9-21.1,1.9-21.1l.8,1.1c.1.2,12.3,17.2,19.6,32.9,7.3,15.7,8,38,8,38.2v.5ZM148,103.9l24.7.5c-.2-3.5-1.4-23.1-7.9-37.3-6.2-13.3-15.9-27.6-18.7-31.6l-1.6,17.6c2.1,1,13.1,6.8,16.8,16.1,3.8,9.2-10.3,30.4-13.3,34.7Z"/>
    <path class="st0" d="M121.1,100.3l-1-.2c-.4,0-36.4-7.8-55.8-31.7l-.3-.3,12-12.1c-1.9.7-3.9,1.2-6.2,1.4-10.5,1-14-2.3-15.2-4.3-1.3-2.2-1-4.9.8-7.3,3.9-5.5,63.3-20.3,65.8-20.9h.1s.1,0,.1,0l23.3,4.3-41.7,11,34.7-3.4,2.3,18-40.5-2.1,21.7,47.7ZM65.4,68c17.4,21.2,48.1,29.4,54,30.8l-21.6-47.4,41,2.1-2-15.8-39.9,3.9-.2-1,43.4-11.5-18.8-3.5c-17.2,4.3-62.1,16.2-65.2,20.5-1.5,2.1-1.8,4.4-.7,6.3,1.8,3.1,7,4.5,14.3,3.9,3.2-.3,5.9-1.1,8.2-2.3l13.1-13.3-1,2.4c0,0-3.3,7.6-11.5,11.7l-13.1,13.2ZM87,46.2l-5.6,5.7c2.5-1.8,4.4-3.9,5.6-5.7Z"/>
    <path class="st0" d="M72.6,142.1s0,0,0,0c-3-.2-12.8-20.8-14.7-25l-.2-.4,21.8-12.6-26.6-14.5-2.4-36.1,1.2,2.7c.1.3,13.6,30.8,69.9,49.7l1.1.4-22.5,11.1-12.4-8c-1.8,4.2-12.5,29.4-14.3,32.1-.2.3-.5.4-.8.4ZM59,117.1c5.5,11.8,12.1,24,13.7,24,1.9-2.9,14.3-32.2,14.4-32.5l.2-.5,12.9,8.3,19.8-9.8c-28.9-9.9-46.2-22.8-55.6-32-7.2-7-11-12.8-12.7-15.7l2,30.2,27.7,15.1-22.5,13.1Z"/>
    <path class="st0" d="M97.6,151.7c-3.1,0-5.8-.4-8.4-1.3-4.4-1.6-7.8-6.9-8.1-12.6-.2-5.1,2.1-9.2,6.4-11.1,10.3-4.6,13,0,13.1.1h0c0,.1,1.9,9.4,1.9,9.4l14.1-6.8-9.6-7.3,15.8-8.3,8.3,11.2,10.2-8.4-15.8-5.3,8.4-6.2h.2c15.9,5,36.2,5.6,36.4,5.6h1.3s-.9.9-.9.9c-.1.1-13.7,12.2-30.4,23-17.6,11.3-32,17-43,17ZM95.4,125.6c-1.8,0-4.2.5-7.5,1.9-3.9,1.7-6,5.4-5.8,10.1.2,5.4,3.3,10.3,7.4,11.7,24.9,8.8,72.6-31.4,79.8-37.7-4.7-.2-21.5-1.3-35.2-5.5l-6.4,4.7,15.7,5.2-12.4,10.3-8.4-11.4-13.6,7.1,9.7,7.3-16.7,8-2.1-10.4c-.2-.3-1.3-1.6-4.3-1.6Z"/>
  </g>
</svg>